<mxfile host="app.diagrams.net" modified="2024-07-07T02:34:20.642Z" agent="Mozilla/5.0 (Windows NT 10.0; Win64; x64) AppleWebKit/537.36 (KHTML, like Gecko) Chrome/126.0.0.0 Safari/537.36 Edg/126.0.0.0" version="24.6.4" etag="_uW0RBiXDu6yUhsdK23E" type="github">
  <diagram name="第 1 页" id="pw2k-fsAsMK-ligjQo0G">
    <mxGraphModel>
      <root>
        <mxCell id="0" />
        <mxCell id="1" parent="0" />
      </root>
    </mxGraphModel>
  </diagram>
</mxfile>
